<svg width="256" height="256" viewBox="0 0 64 64" fill="none" xmlns="http://www.w3.org/2000/svg">
  <defs>
    <radialGradient id="logoGlow" cx="0" cy="0" r="1" gradientUnits="userSpaceOnUse" gradientTransform="translate(32 32) rotate(90) scale(28)">
      <stop stop-color="#FACC15" stop-opacity="0.24" />
      <stop offset="1" stop-color="#FACC15" stop-opacity="0" />
    </radialGradient>
    <linearGradient id="owlHood" x1="32" y1="14" x2="32" y2="53" gradientUnits="userSpaceOnUse">
      <stop stop-color="#1F2937" />
      <stop offset="1" stop-color="#111827" />
    </linearGradient>
  </defs>
  <circle cx="32" cy="32" r="30" fill="#0B0F19" />
  <circle cx="32" cy="32" r="30" fill="url(#logoGlow)" />
  <circle cx="32" cy="32" r="29" stroke="#FACC15" stroke-opacity="0.78" stroke-width="2" />
  <path d="M19 26.5C19 18.5 24.9 13 32 13C39.1 13 45 18.5 45 26.5V35H19V26.5Z" fill="url(#owlHood)" />
  <ellipse cx="32" cy="37" rx="18" ry="16" fill="url(#owlHood)" />
  <ellipse cx="25.5" cy="31.5" rx="7.5" ry="8.5" fill="#FFF7E6" />
  <ellipse cx="38.5" cy="31.5" rx="7.5" ry="8.5" fill="#FFF7E6" />
  <circle cx="25.5" cy="31.5" r="3.4" fill="#0B0F19" />
  <circle cx="38.5" cy="31.5" r="3.4" fill="#0B0F19" />
  <circle cx="26.7" cy="30.3" r="0.9" fill="white" />
  <circle cx="39.7" cy="30.3" r="0.9" fill="white" />
  <path d="M32 33.5L28.8 36.2H35.2L32 33.5Z" fill="#FACC15" />
  <path d="M23.5 43C24.6 39 27.7 36.8 32 36.8C36.3 36.8 39.4 39 40.5 43" stroke="#FACC15" stroke-opacity="0.55" stroke-width="1.8" stroke-linecap="round" />
  <path d="M28.5 41.5C28.5 39.6 30.1 38 32 38C33.9 38 35.5 39.6 35.5 41.5V43H33.7V41.6C33.7 40.7 32.9 39.9 32 39.9C31.1 39.9 30.3 40.7 30.3 41.6V43H28.5V41.5Z" fill="#FACC15" />
  <rect x="27" y="42.2" width="10" height="7.8" rx="2.4" fill="#111827" stroke="#FACC15" stroke-opacity="0.7" stroke-width="1.4" />
  <path d="M32 45.2V47.6" stroke="#FACC15" stroke-width="1.8" stroke-linecap="round" />
</svg>
