<svg width="358" height="80" viewBox="0 0 358 80" fill="none" xmlns="http://www.w3.org/2000/svg">
  <rect width="80" height="80" rx="22" fill="#0B0F19"/>
  <path d="M24 27.5C24 16.1782 33.1782 7 44.5 7C55.8218 7 65 16.1782 65 27.5V34H56V27.5C56 21.1487 50.8513 16 44.5 16C38.1487 16 33 21.1487 33 27.5V34H24V27.5Z" fill="#FACC15"/>
  <path d="M20 29H55L67 41V60C67 66.6274 61.6274 72 55 72H32C25.3726 72 20 66.6274 20 60V29Z" fill="#111827"/>
  <path d="M55 29L67 41H59C56.7909 41 55 39.2091 55 37V29Z" fill="#FACC15"/>
  <rect x="28" y="40" width="31" height="5" rx="2.5" fill="#FACC15"/>
  <rect x="28" y="51" width="31" height="5" rx="2.5" fill="#FACC15" fill-opacity="0.42"/>
  <rect x="28" y="61" width="21" height="5" rx="2.5" fill="#FACC15" fill-opacity="0.42"/>
  <circle cx="64" cy="59" r="10" fill="#FACC15"/>
  <path d="M64 55C65.6569 55 67 53.6569 67 52C67 50.3431 65.6569 49 64 49C62.3431 49 61 50.3431 61 52C61 53.6569 62.3431 55 64 55Z" fill="#0B0F19"/>
  <path d="M64 55V60.5" stroke="#0B0F19" stroke-width="3.5" stroke-linecap="round"/>
  <path d="M112 27.4961H119.706C127.132 27.4961 132.294 31.5859 132.294 38.125C132.294 44.7461 127.132 48.8359 119.706 48.8359H112V27.4961ZM119.343 44.9922C124.05 44.9922 127.436 42.2188 127.436 38.125C127.436 34.0312 124.05 31.3398 119.343 31.3398H116.797V44.9922H119.343Z" fill="#F9FAFB"/>
  <path d="M135.242 40.6875C135.242 35.9375 138.644 32.7148 143.183 32.7148C147.78 32.7148 151.038 35.8555 151.038 40.6055C151.038 40.9688 151.001 41.4805 150.96 41.8125H139.839C140.249 44.0781 141.937 45.3828 144.323 45.3828C146.081 45.3828 147.358 44.8359 148.448 43.7109L150.989 46.4688C149.517 48.1484 147.313 49 144.202 49C138.992 49 135.242 45.7109 135.242 40.6875ZM146.829 39.3203C146.564 37.0273 145.171 35.543 143.152 35.543C141.104 35.543 139.753 36.9922 139.433 39.3203H146.829Z" fill="#F9FAFB"/>
  <path d="M153.101 47.3125L154.655 43.957C156.068 44.8906 158.123 45.5234 160.046 45.5234C162.144 45.5234 162.929 44.9766 162.929 44.1094C162.929 41.2891 153.476 44.1719 153.476 37.2695C153.476 33.9961 156.502 32.7148 159.996 32.7148C162.308 32.7148 164.878 33.2617 166.409 34.1953L164.855 37.5195C163.296 36.6406 161.73 36.3516 159.996 36.3516C157.953 36.3516 157.066 36.9844 157.066 37.793C157.066 40.7266 166.519 37.8828 166.519 44.6914C166.519 47.9023 163.468 49 159.779 49C156.919 49 154.038 48.2227 153.101 47.3125Z" fill="#F9FAFB"/>
  <path d="M169.023 27.4961C169.023 26.0117 170.224 24.8555 171.88 24.8555C173.536 24.8555 174.736 25.957 174.736 27.4141C174.736 28.9805 173.536 30.1367 171.88 30.1367C170.224 30.1367 169.023 28.9805 169.023 27.4961ZM169.491 32.9492H174.269V48.7578H169.491V32.9492Z" fill="#F9FAFB"/>
  <path d="M194.386 32.9492V46.1172C194.386 51.9961 191.274 54.6953 185.706 54.6953C182.771 54.6953 179.858 53.9727 178.066 52.5781L179.967 49.1562C181.28 50.2266 183.426 50.9492 185.325 50.9492C188.407 50.9492 189.754 49.5469 189.754 46.8125V46.1445C188.553 47.4766 186.847 48.125 184.832 48.125C180.45 48.125 176.915 45.1055 176.915 40.4219C176.915 35.7422 180.45 32.7148 184.832 32.7148C186.999 32.7148 188.776 33.4375 189.977 34.9258V32.9492H194.386ZM189.672 40.4219C189.672 38.1211 188.002 36.5469 185.681 36.5469C183.336 36.5469 181.639 38.1211 181.639 40.4219C181.639 42.7227 183.336 44.293 185.681 44.293C188.002 44.293 189.672 42.7227 189.672 40.4219Z" fill="#F9FAFB"/>
  <path d="M214.485 39.7031V48.7578H209.706V40.4297C209.706 37.875 208.533 36.6953 206.5 36.6953C204.292 36.6953 202.69 38.043 202.69 40.9375V48.7578H197.913V32.9492H202.469V34.8008C203.711 33.4375 205.557 32.7148 207.667 32.7148C211.401 32.7148 214.485 34.8945 214.485 39.7031Z" fill="#F9FAFB"/>
  <path d="M229.652 48.7578V27.4961H234.59V44.8125H245.305V48.7578H229.652Z" fill="#F9FAFB"/>
  <path d="M247.3 40.6875C247.3 35.9375 250.702 32.7148 255.241 32.7148C259.839 32.7148 263.097 35.8555 263.097 40.6055C263.097 40.9688 263.058 41.4805 263.015 41.8125H251.897C252.304 44.0781 253.995 45.3828 256.38 45.3828C258.136 45.3828 259.413 44.8359 260.507 43.7109L263.046 46.4688C261.573 48.1484 259.374 49 256.261 49C251.05 49 247.3 45.7109 247.3 40.6875ZM258.89 39.3203C258.624 37.0273 257.233 35.543 255.214 35.543C253.167 35.543 251.811 36.9922 251.491 39.3203H258.89Z" fill="#F9FAFB"/>
  <path d="M264.747 47.3125L266.302 43.957C267.716 44.8906 269.767 45.5234 271.692 45.5234C273.79 45.5234 274.579 44.9766 274.579 44.1094C274.579 41.2891 265.122 44.1719 265.122 37.2695C265.122 33.9961 268.149 32.7148 271.642 32.7148C273.958 32.7148 276.524 33.2617 278.06 34.1953L276.505 37.5195C274.95 36.6406 273.38 36.3516 271.642 36.3516C269.603 36.3516 268.708 36.9844 268.708 37.793C268.708 40.7266 278.167 37.8828 278.167 44.6914C278.167 47.9023 275.112 49 271.419 49C268.56 49 265.681 48.2227 264.747 47.3125Z" fill="#F9FAFB"/>
  <path d="M280.265 47.3125L281.821 43.957C283.229 44.8906 285.284 45.5234 287.21 45.5234C289.308 45.5234 290.097 44.9766 290.097 44.1094C290.097 41.2891 280.64 44.1719 280.64 37.2695C280.64 33.9961 283.667 32.7148 287.161 32.7148C289.476 32.7148 292.042 33.2617 293.577 34.1953L292.023 37.5195C290.468 36.6406 288.894 36.3516 287.161 36.3516C285.12 36.3516 284.229 36.9844 284.229 37.793C284.229 40.7266 293.683 37.8828 293.683 44.6914C293.683 47.9023 290.632 49 286.942 49C284.085 49 281.202 48.2227 280.265 47.3125Z" fill="#F9FAFB"/>
</svg>
